# xmcd
#
# Track frame offsets:
#	150
#	11380
#	25990
#	37947
#	50172
#	59402
#	67737
#	76280
#	85720
#	94185
#	103955
#	115727
#	125342
#	135542
#	145342
#	157645
#	172547
#	182445
#	191585
#	202825
#	214405
#	226087
#	238712
#	249077
#	260600
#	273532
#	284835
#	295075
#	304032
#	314657
#	322615
#
# Disc length: 4358 seconds
#
# Revision: 8
# Processed by: cddbd v1.5.2PL0 Copyright (c) Steve Scherf et al.
# Submitted via: EZCDAudioConverter 1.3.4.1
#
DISCID=a411041f
DTITLE=The Zombies - Zombie Heaven 3/4
DYEAR=1968
DGENRE=
TTITLE0=Summertime [Demo]
TTITLE1=Woman [Demo]
TTITLE2=Kind Of Girl [Demo]
TTITLE3=Leave Me Be [Demo]
TTITLE4=I'm Going Home [Takes 1 and 2]
TTITLE5=I'm Going Home
TTITLE6=Sometimes [Intro]
TTITLE7=Sometimes
TTITLE8=It's Alright With Me
TTITLE9=Kind Of Girl
TTITLE10=Walking In The Sun [Undubbed]
TTITLE11=Studio Chat
TTITLE12=The Way I Feel Inside [Rehearsal]
TTITLE13=I Want You Back Again [Alternate Version]
TTITLE14=Nothing's Changed [Backing Track]
TTITLE15=Nothing's Changed
TTITLE16=Remember You [Soundtrack Version]
TTITLE17=Come On Time
TTITLE18=I'll Keep Trying [Undubbed]
TTITLE19=Whenever You're Ready [Demo]
TTITLE20=You'll Go From Me [Demo]
TTITLE21=I Know She Will [Undubbed]
TTITLE22=Don't Cry For Me [Undubbed]
TTITLE23=If It Don't Work Out [Undubbed]
TTITLE24=One Day I'll Say Goodbye [Home Demo]
TTITLE25=I Don't Want To Worry [Home Demo]
TTITLE26=A Love That Never Was [Demo]
TTITLE27=Call Of The Night [Demo]
TTITLE28=Out Of The Day [Demo]
TTITLE29=This Will Be Our Year [Demo]
TTITLE30=Bunny Lake Is Missing [Promo Spot]
EXTD=
EXTT0=
EXTT1=
EXTT2=
EXTT3=
EXTT4=
EXTT5=
EXTT6=
EXTT7=
EXTT8=
EXTT9=
EXTT10=
EXTT11=
EXTT12=
EXTT13=
EXTT14=
EXTT15=
EXTT16=
EXTT17=
EXTT18=
EXTT19=
EXTT20=
EXTT21=
EXTT22=
EXTT23=
EXTT24=
EXTT25=
EXTT26=
EXTT27=
EXTT28=
EXTT29=
EXTT30=
PLAYORDER=
